<?xml version="1.0" encoding="utf-8"?>
<!-- Generator: Adobe Illustrator 17.0.0, SVG Export Plug-In . SVG Version: 6.00 Build 0)  -->
<!DOCTYPE svg PUBLIC "-//W3C//DTD SVG 1.1//EN" "http://www.w3.org/Graphics/SVG/1.1/DTD/svg11.dtd">
<svg version="1.1" id="图层_1" xmlns="http://www.w3.org/2000/svg" xmlns:xlink="http://www.w3.org/1999/xlink" x="0px" y="0px"
	 width="74px" height="74px" viewBox="0 0 74 74" enable-background="new 0 0 74 74" xml:space="preserve">
<g>
	<path fill="none" stroke="#898989" stroke-width="2" stroke-linejoin="round" stroke-miterlimit="10" d="M10.903,28.098
		c-2.221,0-4.021,1.807-4.021,4.036v17.299c0,2.229,1.8,4.036,4.021,4.036s4.021-1.807,4.021-4.036V32.134
		C14.924,29.905,13.124,28.098,10.903,28.098z"/>
	<path fill="none" stroke="#898989" stroke-width="2" stroke-linejoin="round" stroke-miterlimit="10" d="M63.097,28.098
		c-2.221,0-4.021,1.807-4.021,4.036v17.299c0,2.229,1.8,4.036,4.021,4.036c2.221,0,4.021-1.807,4.021-4.036V32.134
		C67.117,29.905,65.317,28.098,63.097,28.098z"/>
	<g>
		<path fill="#898989" d="M55.555,28.098v26.114c0,2.488-2.009,4.504-4.487,4.504h-3.192v9.247c0,2.229-1.8,4.036-4.021,4.036
			c-2.221,0-4.021-1.807-4.021-4.036v-9.247h-5.667v9.247c0,2.229-1.8,4.036-4.021,4.036c-2.221,0-4.021-1.807-4.021-4.036v-9.247
			h-3.193c-2.478,0-4.487-2.017-4.487-4.504V28.098H55.555 M55.555,26.098h-37.11c-1.105,0-2,0.895-2,2v26.114
			c0,3.587,2.91,6.504,6.487,6.504h1.193v7.247c0,3.328,2.701,6.036,6.021,6.036s6.021-2.708,6.021-6.036v-7.247h1.667v7.247
			c0,3.328,2.701,6.036,6.021,6.036s6.021-2.708,6.021-6.036v-7.247h1.192c3.577,0,6.487-2.918,6.487-6.504V28.098
			C57.555,26.994,56.659,26.098,55.555,26.098L55.555,26.098z"/>
	</g>
	<g>
		<path fill="#22AC38" d="M48.432,2c0.144,0,0.289,0.034,0.425,0.107c0.443,0.237,0.61,0.788,0.375,1.232l-2.989,5.637
			c5.086,2.922,8.679,8.162,9.312,14.298h-37.11c0.633-6.136,4.227-11.376,9.312-14.298l-2.989-5.637
			c-0.235-0.444-0.068-0.995,0.375-1.232C25.279,2.034,25.424,2,25.568,2c0.325,0,0.639,0.176,0.802,0.483l3.005,5.667
			c2.33-1.05,4.905-1.652,7.625-1.652c2.72,0,5.295,0.602,7.625,1.652l3.005-5.667C47.793,2.176,48.107,2,48.432,2 M48.432,0
			c-1.079,0-2.064,0.593-2.569,1.547l-2.165,4.082C41.535,4.878,39.289,4.498,37,4.498c-2.289,0-4.535,0.38-6.698,1.132
			l-2.165-4.083C27.632,0.593,26.648,0,25.568,0c-0.476,0-0.949,0.119-1.369,0.344c-1.409,0.753-1.947,2.517-1.198,3.931l2.126,4.01
			c-4.861,3.434-8.058,8.833-8.672,14.784c-0.058,0.563,0.125,1.125,0.504,1.545c0.379,0.42,0.919,0.66,1.485,0.66h37.11
			c0.566,0,1.106-0.24,1.485-0.66c0.379-0.42,0.563-0.982,0.504-1.545c-0.614-5.95-3.811-11.349-8.671-14.784l2.126-4.009
			c0.75-1.414,0.212-3.178-1.199-3.932C49.38,0.119,48.907,0,48.432,0L48.432,0z"/>
	</g>
	<g>
		<ellipse fill="none" stroke="#22AC38" stroke-miterlimit="10" cx="29.53" cy="15.888" rx="1.804" ry="1.81"/>
		<ellipse fill="none" stroke="#22AC38" stroke-miterlimit="10" cx="44.47" cy="15.888" rx="1.804" ry="1.81"/>
	</g>
</g>
</svg>
