<?xml version="1.0" encoding="utf-8"?>
<!-- Generator: Adobe Illustrator 17.0.0, SVG Export Plug-In . SVG Version: 6.00 Build 0)  -->
<!DOCTYPE svg PUBLIC "-//W3C//DTD SVG 1.1//EN" "http://www.w3.org/Graphics/SVG/1.1/DTD/svg11.dtd">
<svg version="1.1" id="图层_1" xmlns="http://www.w3.org/2000/svg" xmlns:xlink="http://www.w3.org/1999/xlink" x="0px" y="0px"
	 width="74px" height="74px" viewBox="0 0 74 74" enable-background="new 0 0 74 74" xml:space="preserve">
<g>
	
		<line fill="none" stroke="#898989" stroke-linecap="round" stroke-linejoin="round" stroke-miterlimit="10" x1="28.142" y1="19.983" x2="46.181" y2="19.983"/>
	<path fill="none" stroke="#898989" stroke-width="2" stroke-linecap="round" stroke-linejoin="round" stroke-miterlimit="10" d="
		M53.574,36.328c0,9.1-7.348,16.478-16.413,16.478s-16.413-7.377-16.413-16.478V19.566c0-9.1,7.348-16.478,16.413-16.478
		c5.212,0,9.856,2.439,12.862,6.241c2.223,2.811,3.55,6.368,3.55,10.236V36.328z"/>
	<path fill="none" stroke="#898989" stroke-width="2" stroke-linecap="round" stroke-linejoin="round" stroke-miterlimit="10" d="
		M25.686,49.029C15.436,52.351,6.363,60.652,1,70.912h71.907c-5.202-10.191-14.268-18.411-24.39-21.786"/>
	<g>
		<g>
			
				<line fill="none" stroke="#EA5514" stroke-width="2" stroke-linecap="round" stroke-linejoin="round" stroke-miterlimit="10" x1="65.515" y1="29.516" x2="65.515" y2="29.243"/>
		</g>
		<path fill="none" stroke="#EA5514" stroke-width="2" stroke-linecap="round" stroke-linejoin="round" stroke-miterlimit="10" d="
			M58.029,10.576c0-4.136,3.351-7.488,7.485-7.488S73,6.441,73,10.576c0,2.848-1.589,5.325-3.929,6.591
			c-2.177,1.073-3.556,2.516-3.556,4.679c0,0.647,0,3.179,0,3.179"/>
	</g>
</g>
</svg>
