<?xml version="1.0" encoding="utf-8"?>
<!-- Generator: Adobe Illustrator 17.0.0, SVG Export Plug-In . SVG Version: 6.00 Build 0)  -->
<!DOCTYPE svg PUBLIC "-//W3C//DTD SVG 1.1//EN" "http://www.w3.org/Graphics/SVG/1.1/DTD/svg11.dtd">
<svg version="1.1" id="图层_1" xmlns="http://www.w3.org/2000/svg" xmlns:xlink="http://www.w3.org/1999/xlink" x="0px" y="0px"
	 width="74px" height="74px" viewBox="0 0 74 74" enable-background="new 0 0 74 74" xml:space="preserve">
<g>
	<g>
		<path fill="#898989" d="M55.384,3C63.995,3,71,10.005,71,18.616v36.768C71,63.995,63.995,71,55.384,71H18.616
			C10.005,71,3,63.995,3,55.384V18.616C3,10.005,10.005,3,18.616,3H55.384 M55.384,2H18.616C9.439,2,2,9.439,2,18.616v36.768
			C2,64.561,9.439,72,18.616,72h36.768C64.561,72,72,64.561,72,55.384V18.616C72,9.439,64.561,2,55.384,2L55.384,2z"/>
	</g>
</g>
<path fill="none" stroke="#F39800" stroke-width="2" stroke-miterlimit="10" d="M37.22,10.829c0,0,12.789-0.007,12.789,11.634
	c0,10.781-12.789,12.767-12.789,12.767S21.682,37,21.682,49.156c0,12.129,12.129,14.016,15.539,14.016
	c3.418,0,15.098-2.156,15.098-13.387c0-12.039-12.309-13.926-16.98-15.094c-4.672-1.168-11.118-4.492-11.118-12.322
	C24.22,14.476,31.969,10.829,37.22,10.829z"/>
</svg>
