<?xml version="1.0" encoding="utf-8"?>
<!-- Generator: Adobe Illustrator 17.0.0, SVG Export Plug-In . SVG Version: 6.00 Build 0)  -->
<!DOCTYPE svg PUBLIC "-//W3C//DTD SVG 1.1//EN" "http://www.w3.org/Graphics/SVG/1.1/DTD/svg11.dtd">
<svg version="1.1" id="图层_1" xmlns="http://www.w3.org/2000/svg" xmlns:xlink="http://www.w3.org/1999/xlink" x="0px" y="0px"
	 width="74px" height="74px" viewBox="0 0 74 74" enable-background="new 0 0 74 74" xml:space="preserve">
<path fill="none" stroke="#898989" stroke-width="2" stroke-linecap="round" stroke-linejoin="round" stroke-miterlimit="10" d="
	M61.068,24.32c0.116-0.732,0.193-1.476,0.193-2.24c0-7.875-6.381-14.258-14.251-14.258c-5.526,0-10.307,3.153-12.671,7.753
	c-1.609-0.87-3.45-1.365-5.407-1.365c-5.887,0-10.73,4.47-11.325,10.203c-0.856-0.164-1.737-0.257-2.641-0.257
	C7.253,24.156,1,30.411,1,38.128s6.253,13.973,13.966,13.973h44.068C66.747,52.101,73,45.845,73,38.128
	C73,31.105,67.815,25.308,61.068,24.32z"/>
<g>
	<g>
		<path fill="none" stroke="#2EA7E0" stroke-miterlimit="10" d="M47.802,33.01c-2.505-2.506-5.966-4.056-9.788-4.056
			s-7.283,1.55-9.788,4.056"/>
		<path fill="none" stroke="#2EA7E0" stroke-miterlimit="10" d="M45.331,35.483c-1.873-1.873-4.46-3.032-7.317-3.032
			s-5.444,1.159-7.317,3.032"/>
		<path fill="none" stroke="#2EA7E0" stroke-miterlimit="10" d="M33.17,37.957c1.24-1.24,2.953-2.008,4.844-2.008
			s3.605,0.767,4.845,2.008"/>
	</g>
	<circle fill="none" stroke="#2EA7E0" stroke-miterlimit="10" cx="38.014" cy="41.112" r="1.629"/>
</g>
<line fill="none" stroke="#898989" stroke-width="2" stroke-linecap="round" stroke-linejoin="round" stroke-miterlimit="10" x1="14.966" y1="59.152" x2="58.052" y2="59.152"/>
<line fill="none" stroke="#898989" stroke-width="2" stroke-linecap="round" stroke-linejoin="round" stroke-miterlimit="10" x1="14.966" y1="66.178" x2="58.052" y2="66.178"/>
</svg>
