<?xml version="1.0" encoding="utf-8"?>
<!-- Generator: Adobe Illustrator 17.0.0, SVG Export Plug-In . SVG Version: 6.00 Build 0)  -->
<!DOCTYPE svg PUBLIC "-//W3C//DTD SVG 1.1//EN" "http://www.w3.org/Graphics/SVG/1.1/DTD/svg11.dtd">
<svg version="1.1" id="图层_1" xmlns="http://www.w3.org/2000/svg" xmlns:xlink="http://www.w3.org/1999/xlink" x="0px" y="0px"
	 width="74px" height="74px" viewBox="0 0 74 74" enable-background="new 0 0 74 74" xml:space="preserve">
<path fill="none" stroke="#898989" stroke-linejoin="round" stroke-miterlimit="10" d="M67.829,58.687
	c2.304,0,4.171-1.875,4.171-4.188V11.116c0-2.313-1.867-4.188-4.171-4.188H6.171C3.867,6.928,2,8.803,2,11.116v43.383
	c0,2.313,1.867,4.188,4.171,4.188H67.829z"/>
<path fill="none" stroke="#898989" stroke-linejoin="round" stroke-miterlimit="10" d="M67.829,67.072
	c2.304,0,4.171-1.875,4.171-4.188v-1.149H2v1.149c0,2.313,1.867,4.188,4.171,4.188H67.829z"/>
<g>
	<defs>
		<rect id="SVGID_1_" x="5.288" y="11.309" width="63.424" height="42.997"/>
	</defs>
	<clipPath id="SVGID_2_">
		<use xlink:href="#SVGID_1_"  overflow="visible"/>
	</clipPath>
	
		<circle clip-path="url(#SVGID_2_)" fill="none" stroke="#2EA7E0" stroke-width="0.77" stroke-linecap="round" stroke-linejoin="round" stroke-miterlimit="10" cx="37" cy="48.534" r="26.837"/>
	<g clip-path="url(#SVGID_2_)">
		<defs>
			<circle id="SVGID_3_" cx="37" cy="48.534" r="26.837"/>
		</defs>
		<clipPath id="SVGID_4_">
			<use xlink:href="#SVGID_3_"  overflow="visible"/>
		</clipPath>
		<g clip-path="url(#SVGID_4_)">
			<polygon fill="none" stroke="#2EA7E0" stroke-linecap="round" stroke-linejoin="round" stroke-miterlimit="10" points="
				58.794,57.003 58.302,59.567 59.232,58.743 			"/>
			<polyline fill="none" stroke="#2EA7E0" stroke-linecap="round" stroke-linejoin="round" stroke-miterlimit="10" points="
				53.565,56.509 50.471,54.377 46.798,56.363 47.196,59.487 50.137,58.112 52.752,60.06 53.565,56.509 			"/>
			<polyline fill="none" stroke="#2EA7E0" stroke-linecap="round" stroke-linejoin="round" stroke-miterlimit="10" points="
				32.066,34.188 31.086,33.901 28.334,35.438 29.358,37.046 			"/>
			<polyline fill="none" stroke="#2EA7E0" stroke-linecap="round" stroke-linejoin="round" stroke-miterlimit="10" points="
				27.403,40.859 25.979,40.321 25.605,41.978 26.617,42.33 			"/>
			<polygon fill="none" stroke="#2EA7E0" stroke-linecap="round" stroke-linejoin="round" stroke-miterlimit="10" points="
				26.12,39.699 27.206,39.316 26.9,36.221 			"/>
			<polyline fill="none" stroke="#2EA7E0" stroke-linecap="round" stroke-linejoin="round" stroke-miterlimit="10" points="
				43.875,33.439 34.479,34.893 32.566,34.334 32.066,34.188 			"/>
			<polyline fill="none" stroke="#2EA7E0" stroke-linecap="round" stroke-linejoin="round" stroke-miterlimit="10" points="
				18.48,39.502 18.875,37.635 16.496,36.736 15.73,38.546 13.669,37.83 13.63,35.652 13.578,32.748 6.609,32.862 6.653,33.015 
				6.263,32.868 2.149,32.935 1.929,33.749 7.41,35.654 9.701,43.537 10.181,45.32 12.488,46.643 13.837,47.28 13.878,49.919 
				13.934,52.546 15.385,54.122 14.248,59.507 15.16,62.689 20.602,53.825 21.767,51.95 16.509,48.743 16.626,48.173 13.826,46.543 
				13.108,46.02 11.506,44.852 13.781,44.05 15.765,43.35 18.17,40.903 18.48,39.502 			"/>
			<polygon fill="none" stroke="#2EA7E0" stroke-linecap="round" stroke-linejoin="round" stroke-miterlimit="10" points="
				23.807,32.082 22.984,28.688 18.311,30.574 19.931,32.644 19.136,36.398 20.613,37.4 23.925,32.569 23.809,32.082 			"/>
			<polyline fill="none" stroke="#2EA7E0" stroke-linecap="round" stroke-linejoin="round" stroke-miterlimit="10" points="
				45.177,47.577 45.618,47.109 45.14,43.361 46.714,45.949 53.409,38.861 53.409,40.546 57.368,37.256 56.148,35.96 43.875,33.439 
							"/>
			
				<line fill="none" stroke="#2EA7E0" stroke-linecap="round" stroke-linejoin="round" stroke-miterlimit="10" x1="42.205" y1="46.454" x2="42.205" y2="46.454"/>
			<polyline fill="none" stroke="#2EA7E0" stroke-linecap="round" stroke-linejoin="round" stroke-miterlimit="10" points="
				26.617,42.33 24.09,44.959 23.953,47.545 24.361,47.701 28.181,48.258 28.274,49.159 29.011,55.685 30.503,56.476 33.402,51.15 
				36.359,45.717 37.024,44.495 39.891,48.891 42.204,46.454 43.681,50.351 45.177,47.577 			"/>
			<g>
				
					<polygon fill="none" stroke="#2EA7E0" stroke-width="0.1" stroke-linecap="round" stroke-linejoin="round" stroke-miterlimit="10" points="
					58.794,57.003 58.302,59.567 59.232,58.743 				"/>
				
					<line fill="none" stroke="#2EA7E0" stroke-width="0.1" stroke-linecap="round" stroke-linejoin="round" stroke-miterlimit="10" x1="39.949" y1="34.823" x2="43.875" y2="33.439"/>
				
					<polyline fill="none" stroke="#2EA7E0" stroke-width="0.1" stroke-linecap="round" stroke-linejoin="round" stroke-miterlimit="10" points="
					39.949,34.823 30.143,38.281 28.343,41.214 37.024,44.495 				"/>
				
					<polygon fill="none" stroke="#2EA7E0" stroke-width="0.1" stroke-linecap="round" stroke-linejoin="round" stroke-miterlimit="10" points="
					28.343,41.214 27.403,40.859 27.206,39.316 30.143,38.281 				"/>
				
					<polyline fill="none" stroke="#2EA7E0" stroke-width="0.1" stroke-linecap="round" stroke-linejoin="round" stroke-miterlimit="10" points="
					37.024,44.495 45.177,47.577 45.618,47.109 45.14,43.361 				"/>
				
					<polygon fill="none" stroke="#2EA7E0" stroke-width="0.1" stroke-linecap="round" stroke-linejoin="round" stroke-miterlimit="10" points="
					46.714,45.949 45.14,43.361 43.875,33.439 43.875,33.439 56.148,35.96 				"/>
				
					<polygon fill="none" stroke="#2EA7E0" stroke-width="0.1" stroke-linecap="round" stroke-linejoin="round" stroke-miterlimit="10" points="
					52.752,60.06 50.137,58.112 53.565,56.509 53.565,56.509 				"/>
				
					<polygon fill="none" stroke="#2EA7E0" stroke-width="0.1" stroke-linecap="round" stroke-linejoin="round" stroke-miterlimit="10" points="
					46.798,56.363 50.471,54.377 53.565,56.509 47.196,59.487 				"/>
				
					<polygon fill="none" stroke="#2EA7E0" stroke-width="0.1" stroke-linecap="round" stroke-linejoin="round" stroke-miterlimit="10" points="
					30.503,56.476 29.011,55.685 28.274,49.159 33.402,51.15 				"/>
				
					<polyline fill="none" stroke="#2EA7E0" stroke-width="0.1" stroke-linecap="round" stroke-linejoin="round" stroke-miterlimit="10" points="
					36.359,45.717 33.402,51.15 28.274,49.159 				"/>
				
					<line fill="none" stroke="#2EA7E0" stroke-width="0.1" stroke-linecap="round" stroke-linejoin="round" stroke-miterlimit="10" x1="24.361" y1="47.701" x2="28.181" y2="48.258"/>
				
					<polyline fill="none" stroke="#2EA7E0" stroke-width="0.1" stroke-linecap="round" stroke-linejoin="round" stroke-miterlimit="10" points="
					26.617,42.33 24.09,44.959 23.953,47.545 24.361,47.701 				"/>
				
					<polygon fill="none" stroke="#2EA7E0" stroke-width="0.1" stroke-linecap="round" stroke-linejoin="round" stroke-miterlimit="10" points="
					29.358,37.046 28.334,35.438 31.086,33.901 32.066,34.188 				"/>
				
					<polyline fill="none" stroke="#2EA7E0" stroke-width="0.1" stroke-linecap="round" stroke-linejoin="round" stroke-miterlimit="10" points="
					27.403,40.859 25.979,40.321 25.605,41.978 26.617,42.33 				"/>
				
					<polygon fill="none" stroke="#2EA7E0" stroke-width="0.1" stroke-linecap="round" stroke-linejoin="round" stroke-miterlimit="10" points="
					27.206,39.316 26.9,36.221 26.12,39.7 				"/>
				
					<polyline fill="none" stroke="#2EA7E0" stroke-width="0.1" stroke-linecap="round" stroke-linejoin="round" stroke-miterlimit="10" points="
					30.124,38.287 27.206,39.316 29.362,37.043 				"/>
				
					<polyline fill="none" stroke="#2EA7E0" stroke-width="0.1" stroke-linecap="round" stroke-linejoin="round" stroke-miterlimit="10" points="
					32.566,34.334 37.36,35.736 30.142,38.279 				"/>
				
					<polyline fill="none" stroke="#2EA7E0" stroke-width="0.1" stroke-linecap="round" stroke-linejoin="round" stroke-miterlimit="10" points="
					14.248,59.507 15.16,62.689 20.602,53.825 				"/>
				
					<path fill="none" stroke="#2EA7E0" stroke-width="0.1" stroke-linecap="round" stroke-linejoin="round" stroke-miterlimit="10" d="
					M16.028,51.081"/>
				
					<polyline fill="none" stroke="#2EA7E0" stroke-width="0.1" stroke-linecap="round" stroke-linejoin="round" stroke-miterlimit="10" points="
					20.602,53.825 21.767,51.95 16.508,48.743 16.028,51.081 				"/>
				
					<polyline fill="none" stroke="#2EA7E0" stroke-width="0.1" stroke-linecap="round" stroke-linejoin="round" stroke-miterlimit="10" points="
					15.387,54.124 13.934,52.546 13.878,49.919 16.028,51.081 				"/>
				
					<polygon fill="none" stroke="#2EA7E0" stroke-width="0.1" stroke-linecap="round" stroke-linejoin="round" stroke-miterlimit="10" points="
					13.826,46.543 13.878,49.919 16.028,51.081 16.626,48.173 				"/>
				
					<polygon fill="none" stroke="#2EA7E0" stroke-width="0.1" stroke-linecap="round" stroke-linejoin="round" stroke-miterlimit="10" points="
					11.506,44.852 13.781,44.05 13.669,37.83 7.41,35.654 9.701,43.537 				"/>
				
					<polygon fill="none" stroke="#2EA7E0" stroke-width="0.1" stroke-linecap="round" stroke-linejoin="round" stroke-miterlimit="10" points="
					15.765,43.35 18.17,40.903 18.48,39.502 13.669,37.83 13.781,44.05 				"/>
				
					<polygon fill="none" stroke="#2EA7E0" stroke-width="0.1" stroke-linecap="round" stroke-linejoin="round" stroke-miterlimit="10" points="
					7.41,35.654 6.653,33.015 6.263,32.868 2.149,32.935 1.929,33.749 				"/>
				
					<polygon fill="none" stroke="#2EA7E0" stroke-width="0.1" stroke-linecap="round" stroke-linejoin="round" stroke-miterlimit="10" points="
					13.669,37.83 13.63,35.652 6.653,33.015 7.41,35.654 				"/>
				
					<polygon fill="none" stroke="#2EA7E0" stroke-width="0.1" stroke-linecap="round" stroke-linejoin="round" stroke-miterlimit="10" points="
					10.181,45.32 9.701,43.537 11.506,44.852 				"/>
				
					<polygon fill="none" stroke="#2EA7E0" stroke-width="0.1" stroke-linecap="round" stroke-linejoin="round" stroke-miterlimit="10" points="
					12.488,46.643 10.181,45.32 11.506,44.852 13.108,46.02 				"/>
				
					<polygon fill="none" stroke="#2EA7E0" stroke-width="0.1" stroke-linecap="round" stroke-linejoin="round" stroke-miterlimit="10" points="
					15.73,38.546 16.496,36.736 18.875,37.635 18.48,39.502 				"/>
				
					<polygon fill="none" stroke="#2EA7E0" stroke-width="0.1" stroke-linecap="round" stroke-linejoin="round" stroke-miterlimit="10" points="
					13.63,35.652 13.578,32.748 6.609,32.862 6.653,33.015 				"/>
				
					<polygon fill="none" stroke="#2EA7E0" stroke-width="0.1" stroke-linecap="round" stroke-linejoin="round" stroke-miterlimit="10" points="
					20.613,37.4 19.136,36.398 19.136,36.398 19.931,32.644 23.809,32.082 23.925,32.569 				"/>
				
					<polygon fill="none" stroke="#2EA7E0" stroke-width="0.1" stroke-linecap="round" stroke-linejoin="round" stroke-miterlimit="10" points="
					39.891,48.891 37.024,44.495 45.14,43.361 				"/>
				
					<polygon fill="none" stroke="#2EA7E0" stroke-width="0.1" stroke-linecap="round" stroke-linejoin="round" stroke-miterlimit="10" points="
					43.681,50.351 42.204,46.454 45.177,47.577 				"/>
				
					<polygon fill="none" stroke="#2EA7E0" stroke-width="0.1" stroke-linecap="round" stroke-linejoin="round" stroke-miterlimit="10" points="
					53.73,54.357 50.215,52.231 54.044,52.741 				"/>
				
					<polygon fill="none" stroke="#2EA7E0" stroke-width="0.1" stroke-linecap="round" stroke-linejoin="round" stroke-miterlimit="10" points="
					46.125,52.985 43.681,50.351 48.412,51.007 				"/>
				
					<polygon fill="none" stroke="#2EA7E0" stroke-width="0.1" stroke-linecap="round" stroke-linejoin="round" stroke-miterlimit="10" points="
					49.925,53.549 46.125,52.985 50.215,52.231 				"/>
				
					<polygon fill="none" stroke="#2EA7E0" stroke-width="0.1" stroke-linecap="round" stroke-linejoin="round" stroke-miterlimit="10" points="
					33.402,51.15 32.357,53.836 33.336,54.315 34.128,51.43 				"/>
				
					<polygon fill="none" stroke="#2EA7E0" stroke-width="0.1" stroke-linecap="round" stroke-linejoin="round" stroke-miterlimit="10" points="
					34.479,34.893 43.875,33.439 37.36,35.736 				"/>
			</g>
			<polyline fill="none" stroke="#2EA7E0" stroke-linecap="round" stroke-linejoin="round" stroke-miterlimit="10" points="
				29.362,37.043 27.206,39.316 27.403,40.859 			"/>
			<polygon fill="none" stroke="#2EA7E0" stroke-linecap="round" stroke-linejoin="round" stroke-miterlimit="10" points="
				54.044,52.74 50.215,52.231 53.73,54.357 			"/>
			<polygon fill="none" stroke="#2EA7E0" stroke-linecap="round" stroke-linejoin="round" stroke-miterlimit="10" points="
				48.412,51.007 43.681,50.351 46.125,52.985 			"/>
			<polygon fill="none" stroke="#2EA7E0" stroke-linecap="round" stroke-linejoin="round" stroke-miterlimit="10" points="
				50.215,52.231 46.125,52.985 49.925,53.549 			"/>
			<polygon fill="none" stroke="#2EA7E0" stroke-linecap="round" stroke-linejoin="round" stroke-miterlimit="10" points="
				33.336,54.315 34.128,51.43 33.402,51.15 32.357,53.836 			"/>
		</g>
		
			<use xlink:href="#SVGID_3_"  overflow="visible" fill="none" stroke="#2EA7E0" stroke-width="2" stroke-linecap="round" stroke-linejoin="round" stroke-miterlimit="10"/>
	</g>
</g>
<rect x="5.288" y="11.309" fill="none" stroke="#898989" stroke-linecap="round" stroke-linejoin="round" stroke-miterlimit="10" width="63.424" height="42.997"/>
</svg>
