<?xml version="1.0" encoding="utf-8"?>
<!-- Generator: Adobe Illustrator 17.0.0, SVG Export Plug-In . SVG Version: 6.00 Build 0)  -->
<!DOCTYPE svg PUBLIC "-//W3C//DTD SVG 1.1//EN" "http://www.w3.org/Graphics/SVG/1.1/DTD/svg11.dtd">
<svg version="1.1" id="图层_1" xmlns="http://www.w3.org/2000/svg" xmlns:xlink="http://www.w3.org/1999/xlink" x="0px" y="0px"
	 width="74px" height="74px" viewBox="0 0 74 74" enable-background="new 0 0 74 74" xml:space="preserve">
<g>
	<defs>
		<circle id="SVGID_5_" cx="37" cy="37" r="36"/>
	</defs>
	<clipPath id="SVGID_2_">
		<use xlink:href="#SVGID_5_"  overflow="visible"/>
	</clipPath>
	<g clip-path="url(#SVGID_2_)">
		<polygon fill="none" stroke="#2EA7E0" stroke-linecap="round" stroke-linejoin="round" stroke-miterlimit="10" points="
			72.477,52.003 71.755,55.767 73.119,54.558 		"/>
		<polyline fill="none" stroke="#2EA7E0" stroke-linecap="round" stroke-linejoin="round" stroke-miterlimit="10" points="
			64.801,51.279 60.258,48.148 54.867,51.064 55.452,55.65 59.768,53.632 63.607,56.491 64.801,51.279 		"/>
		<polyline fill="none" stroke="#2EA7E0" stroke-linecap="round" stroke-linejoin="round" stroke-miterlimit="10" points="
			33.24,18.511 31.802,18.09 27.762,20.346 29.264,22.706 		"/>
		<polyline fill="none" stroke="#2EA7E0" stroke-linecap="round" stroke-linejoin="round" stroke-miterlimit="10" points="
			26.395,28.304 24.305,27.514 23.755,29.947 25.241,30.464 		"/>
		<polygon fill="none" stroke="#2EA7E0" stroke-linecap="round" stroke-linejoin="round" stroke-miterlimit="10" points="
			24.511,26.602 26.106,26.039 25.657,21.496 		"/>
		<polyline fill="none" stroke="#2EA7E0" stroke-linecap="round" stroke-linejoin="round" stroke-miterlimit="10" points="
			50.576,17.411 36.783,19.546 33.975,18.725 33.24,18.511 		"/>
		<polyline fill="none" stroke="#2EA7E0" stroke-linecap="round" stroke-linejoin="round" stroke-miterlimit="10" points="
			13.296,26.312 13.876,23.571 10.384,22.251 9.26,24.909 6.234,23.857 6.177,20.661 6.1,16.397 -4.13,16.564 -4.066,16.789 
			-4.638,16.573 -10.677,16.672 -11,17.866 -2.955,20.663 0.409,32.236 1.113,34.852 4.501,36.794 6.481,37.73 6.54,41.604 
			6.622,45.46 8.753,47.774 7.084,55.68 8.423,60.35 16.411,47.338 18.121,44.585 10.402,39.878 10.574,39.041 6.464,36.648 
			5.411,35.88 3.058,34.166 6.399,32.988 9.311,31.961 12.841,28.368 13.296,26.312 		"/>
		<polygon fill="none" stroke="#2EA7E0" stroke-linecap="round" stroke-linejoin="round" stroke-miterlimit="10" points="
			21.116,15.419 19.908,10.437 13.048,13.206 15.426,16.245 14.26,21.756 16.428,23.226 21.29,16.135 21.119,15.419 		"/>
		<polyline fill="none" stroke="#2EA7E0" stroke-linecap="round" stroke-linejoin="round" stroke-miterlimit="10" points="
			52.487,38.166 53.135,37.48 52.433,31.977 54.743,35.776 64.571,25.37 64.571,27.845 70.384,23.015 68.593,21.113 50.576,17.411 
					"/>
		
			<line fill="none" stroke="#2EA7E0" stroke-linecap="round" stroke-linejoin="round" stroke-miterlimit="10" x1="48.124" y1="36.517" x2="48.124" y2="36.517"/>
		<polyline fill="none" stroke="#2EA7E0" stroke-linecap="round" stroke-linejoin="round" stroke-miterlimit="10" points="
			25.241,30.464 21.532,34.322 21.331,38.119 21.929,38.348 27.537,39.166 27.675,40.488 28.755,50.068 30.946,51.23 35.202,43.411 
			39.543,35.435 40.519,33.642 44.728,40.095 48.124,36.517 50.292,42.238 52.487,38.166 		"/>
		<g>
			
				<polygon fill="none" stroke="#2EA7E0" stroke-width="0.2" stroke-linecap="round" stroke-linejoin="round" stroke-miterlimit="10" points="
				72.477,52.003 71.755,55.767 73.119,54.558 			"/>
			
				<line fill="none" stroke="#2EA7E0" stroke-width="0.2" stroke-linecap="round" stroke-linejoin="round" stroke-miterlimit="10" x1="44.812" y1="19.444" x2="50.576" y2="17.411"/>
			
				<polyline fill="none" stroke="#2EA7E0" stroke-width="0.2" stroke-linecap="round" stroke-linejoin="round" stroke-miterlimit="10" points="
				44.812,19.444 30.418,24.519 27.775,28.825 40.519,33.642 			"/>
			
				<polygon fill="none" stroke="#2EA7E0" stroke-width="0.2" stroke-linecap="round" stroke-linejoin="round" stroke-miterlimit="10" points="
				27.775,28.825 26.395,28.304 26.106,26.039 30.418,24.519 			"/>
			
				<polyline fill="none" stroke="#2EA7E0" stroke-width="0.2" stroke-linecap="round" stroke-linejoin="round" stroke-miterlimit="10" points="
				40.519,33.642 52.487,38.166 53.135,37.48 52.433,31.977 			"/>
			
				<polygon fill="none" stroke="#2EA7E0" stroke-width="0.2" stroke-linecap="round" stroke-linejoin="round" stroke-miterlimit="10" points="
				54.743,35.776 52.433,31.977 50.576,17.411 50.576,17.411 68.593,21.113 			"/>
			
				<polygon fill="none" stroke="#2EA7E0" stroke-width="0.2" stroke-linecap="round" stroke-linejoin="round" stroke-miterlimit="10" points="
				63.607,56.491 59.768,53.632 64.801,51.279 64.801,51.279 			"/>
			
				<polygon fill="none" stroke="#2EA7E0" stroke-width="0.2" stroke-linecap="round" stroke-linejoin="round" stroke-miterlimit="10" points="
				54.867,51.064 60.258,48.148 64.801,51.279 55.452,55.65 			"/>
			
				<polygon fill="none" stroke="#2EA7E0" stroke-width="0.2" stroke-linecap="round" stroke-linejoin="round" stroke-miterlimit="10" points="
				30.946,51.23 28.755,50.068 27.675,40.488 35.202,43.411 			"/>
			
				<polyline fill="none" stroke="#2EA7E0" stroke-width="0.2" stroke-linecap="round" stroke-linejoin="round" stroke-miterlimit="10" points="
				39.543,35.435 35.202,43.411 27.675,40.488 			"/>
			
				<line fill="none" stroke="#2EA7E0" stroke-width="0.2" stroke-linecap="round" stroke-linejoin="round" stroke-miterlimit="10" x1="21.929" y1="38.348" x2="27.537" y2="39.166"/>
			
				<polyline fill="none" stroke="#2EA7E0" stroke-width="0.2" stroke-linecap="round" stroke-linejoin="round" stroke-miterlimit="10" points="
				25.241,30.464 21.532,34.323 21.331,38.119 21.929,38.348 			"/>
			
				<polygon fill="none" stroke="#2EA7E0" stroke-width="0.2" stroke-linecap="round" stroke-linejoin="round" stroke-miterlimit="10" points="
				29.264,22.706 27.762,20.346 31.802,18.09 33.24,18.511 			"/>
			
				<polyline fill="none" stroke="#2EA7E0" stroke-width="0.2" stroke-linecap="round" stroke-linejoin="round" stroke-miterlimit="10" points="
				26.395,28.304 24.305,27.514 23.755,29.947 25.241,30.464 			"/>
			
				<polygon fill="none" stroke="#2EA7E0" stroke-width="0.2" stroke-linecap="round" stroke-linejoin="round" stroke-miterlimit="10" points="
				26.106,26.039 25.657,21.496 24.511,26.602 			"/>
			
				<polyline fill="none" stroke="#2EA7E0" stroke-width="0.2" stroke-linecap="round" stroke-linejoin="round" stroke-miterlimit="10" points="
				30.39,24.529 26.106,26.039 29.271,22.703 			"/>
			
				<polyline fill="none" stroke="#2EA7E0" stroke-width="0.2" stroke-linecap="round" stroke-linejoin="round" stroke-miterlimit="10" points="
				33.975,18.725 41.012,20.783 30.417,24.516 			"/>
			
				<polyline fill="none" stroke="#2EA7E0" stroke-width="0.2" stroke-linecap="round" stroke-linejoin="round" stroke-miterlimit="10" points="
				7.084,55.68 8.423,60.35 16.411,47.338 			"/>
			
				<path fill="none" stroke="#2EA7E0" stroke-width="0.2" stroke-linecap="round" stroke-linejoin="round" stroke-miterlimit="10" d="
				M9.696,43.31"/>
			
				<polyline fill="none" stroke="#2EA7E0" stroke-width="0.2" stroke-linecap="round" stroke-linejoin="round" stroke-miterlimit="10" points="
				16.411,47.338 18.121,44.585 10.402,39.877 9.696,43.31 			"/>
			
				<polyline fill="none" stroke="#2EA7E0" stroke-width="0.2" stroke-linecap="round" stroke-linejoin="round" stroke-miterlimit="10" points="
				8.756,47.777 6.622,45.46 6.54,41.604 9.696,43.31 			"/>
			
				<polygon fill="none" stroke="#2EA7E0" stroke-width="0.2" stroke-linecap="round" stroke-linejoin="round" stroke-miterlimit="10" points="
				6.464,36.648 6.54,41.604 9.696,43.31 10.574,39.041 			"/>
			
				<polygon fill="none" stroke="#2EA7E0" stroke-width="0.2" stroke-linecap="round" stroke-linejoin="round" stroke-miterlimit="10" points="
				3.058,34.166 6.399,32.988 6.234,23.857 -2.955,20.663 0.409,32.236 			"/>
			
				<polygon fill="none" stroke="#2EA7E0" stroke-width="0.2" stroke-linecap="round" stroke-linejoin="round" stroke-miterlimit="10" points="
				9.311,31.961 12.841,28.368 13.296,26.312 6.234,23.857 6.399,32.988 			"/>
			
				<polygon fill="none" stroke="#2EA7E0" stroke-width="0.2" stroke-linecap="round" stroke-linejoin="round" stroke-miterlimit="10" points="
				6.234,23.857 6.177,20.661 -4.066,16.789 -2.955,20.663 			"/>
			
				<polygon fill="none" stroke="#2EA7E0" stroke-width="0.2" stroke-linecap="round" stroke-linejoin="round" stroke-miterlimit="10" points="
				1.113,34.852 0.409,32.236 3.058,34.166 			"/>
			
				<polygon fill="none" stroke="#2EA7E0" stroke-width="0.2" stroke-linecap="round" stroke-linejoin="round" stroke-miterlimit="10" points="
				4.501,36.794 1.113,34.852 3.058,34.166 5.411,35.88 			"/>
			
				<polygon fill="none" stroke="#2EA7E0" stroke-width="0.2" stroke-linecap="round" stroke-linejoin="round" stroke-miterlimit="10" points="
				9.26,24.909 10.384,22.251 13.876,23.571 13.296,26.312 			"/>
			
				<polygon fill="none" stroke="#2EA7E0" stroke-width="0.2" stroke-linecap="round" stroke-linejoin="round" stroke-miterlimit="10" points="
				6.177,20.661 6.1,16.397 -4.13,16.565 -4.066,16.789 			"/>
			
				<polygon fill="none" stroke="#2EA7E0" stroke-width="0.2" stroke-linecap="round" stroke-linejoin="round" stroke-miterlimit="10" points="
				16.428,23.226 14.26,21.756 14.26,21.756 15.426,16.245 21.119,15.419 21.29,16.135 			"/>
			
				<polygon fill="none" stroke="#2EA7E0" stroke-width="0.2" stroke-linecap="round" stroke-linejoin="round" stroke-miterlimit="10" points="
				44.727,40.095 40.519,33.642 52.433,31.977 			"/>
			
				<polygon fill="none" stroke="#2EA7E0" stroke-width="0.2" stroke-linecap="round" stroke-linejoin="round" stroke-miterlimit="10" points="
				50.292,42.238 48.124,36.517 52.487,38.166 			"/>
			
				<polygon fill="none" stroke="#2EA7E0" stroke-width="0.2" stroke-linecap="round" stroke-linejoin="round" stroke-miterlimit="10" points="
				65.043,48.119 59.883,44.998 65.504,45.746 			"/>
			
				<polygon fill="none" stroke="#2EA7E0" stroke-width="0.2" stroke-linecap="round" stroke-linejoin="round" stroke-miterlimit="10" points="
				53.88,46.105 50.292,42.238 57.237,43.201 			"/>
			
				<polygon fill="none" stroke="#2EA7E0" stroke-width="0.2" stroke-linecap="round" stroke-linejoin="round" stroke-miterlimit="10" points="
				59.458,46.932 53.88,46.105 59.883,44.998 			"/>
			
				<polygon fill="none" stroke="#2EA7E0" stroke-width="0.2" stroke-linecap="round" stroke-linejoin="round" stroke-miterlimit="10" points="
				35.202,43.411 33.667,47.355 35.105,48.057 36.267,43.822 			"/>
			
				<polygon fill="none" stroke="#2EA7E0" stroke-width="0.2" stroke-linecap="round" stroke-linejoin="round" stroke-miterlimit="10" points="
				36.783,19.546 50.576,17.411 41.012,20.783 			"/>
		</g>
		<polyline fill="none" stroke="#2EA7E0" stroke-linecap="round" stroke-linejoin="round" stroke-miterlimit="10" points="
			29.271,22.703 26.106,26.039 26.395,28.304 		"/>
		<polygon fill="none" stroke="#2EA7E0" stroke-linecap="round" stroke-linejoin="round" stroke-miterlimit="10" points="
			65.504,45.746 59.883,44.998 65.043,48.119 		"/>
		<polygon fill="none" stroke="#2EA7E0" stroke-linecap="round" stroke-linejoin="round" stroke-miterlimit="10" points="
			57.237,43.201 50.292,42.238 53.88,46.105 		"/>
		<polygon fill="none" stroke="#2EA7E0" stroke-linecap="round" stroke-linejoin="round" stroke-miterlimit="10" points="
			59.883,44.998 53.88,46.105 59.458,46.932 		"/>
		<polygon fill="none" stroke="#2EA7E0" stroke-linecap="round" stroke-linejoin="round" stroke-miterlimit="10" points="
			35.105,48.057 36.267,43.822 35.202,43.411 33.667,47.355 		"/>
	</g>
	
		<use xlink:href="#SVGID_5_"  overflow="visible" fill="none" stroke="#2EA7E0" stroke-width="2" stroke-linecap="round" stroke-linejoin="round" stroke-miterlimit="10"/>
</g>
<circle fill="none" stroke="#898989" stroke-width="2" stroke-linecap="round" stroke-linejoin="round" stroke-miterlimit="10" cx="37" cy="37" r="36"/>
</svg>
