<?xml version="1.0" encoding="utf-8"?>
<!-- Generator: Adobe Illustrator 17.0.0, SVG Export Plug-In . SVG Version: 6.00 Build 0)  -->
<!DOCTYPE svg PUBLIC "-//W3C//DTD SVG 1.1//EN" "http://www.w3.org/Graphics/SVG/1.1/DTD/svg11.dtd">
<svg version="1.1" id="图层_1" xmlns="http://www.w3.org/2000/svg" xmlns:xlink="http://www.w3.org/1999/xlink" x="0px" y="0px"
	 width="74px" height="74px" viewBox="0 0 74 74" enable-background="new 0 0 74 74" xml:space="preserve">
<g>
	<path fill="#22AC38" d="M23.861,26.849l9.932,21.525h-2.299l-3.349-7.082H18.97l-3.317,7.082h-2.374L23.34,26.849H23.861z
		 M23.592,31.421l-3.649,7.792h7.281L23.592,31.421z"/>
	<path fill="#22AC38" d="M37.079,26.849h4.242c2.432,0,4.073,0.107,4.922,0.322c1.216,0.302,2.21,0.925,2.982,1.866
		c0.772,0.941,1.158,2.125,1.158,3.548c0,1.434-0.377,2.618-1.129,3.549c-0.753,0.931-1.791,1.558-3.113,1.88
		c-0.965,0.235-2.77,0.351-5.414,0.351h-1.52v10.009h-2.128V26.849z M39.207,28.956v7.301l3.605,0.044
		c1.457,0,2.524-0.133,3.199-0.401c0.676-0.268,1.207-0.701,1.593-1.3c0.386-0.598,0.579-1.268,0.579-2.008
		c0-0.72-0.193-1.379-0.579-1.978c-0.386-0.6-0.895-1.026-1.527-1.278c-0.633-0.253-1.668-0.379-3.106-0.379H39.207z"/>
	<path fill="#22AC38" d="M54.336,26.849h2.129v21.525h-2.129V26.849z"/>
</g>
<path fill="none" stroke="#898989" stroke-width="2" stroke-linecap="round" stroke-linejoin="round" stroke-miterlimit="10" d="
	M14.27,12.247h-3.09C5.558,12.247,1,16.864,1,22.559v33.307c0,5.695,4.558,10.312,10.181,10.312h51.639
	C68.442,66.178,73,61.561,73,55.866V22.559c0-5.695-4.558-10.312-10.181-10.312H50.948"/>
<polyline fill="none" stroke="#898989" stroke-width="2" stroke-linecap="round" stroke-linejoin="round" stroke-miterlimit="10" points="
	14.27,12.247 18.445,7.822 46.19,7.822 50.948,12.282 "/>
<line fill="none" stroke="#898989" stroke-linecap="round" stroke-linejoin="round" stroke-miterlimit="10" x1="6.667" y1="58.077" x2="67.333" y2="58.077"/>
<line fill="none" stroke="#898989" stroke-linecap="round" stroke-linejoin="round" stroke-miterlimit="10" x1="18.711" y1="13.262" x2="46.507" y2="13.262"/>
</svg>
