<?xml version="1.0" encoding="utf-8"?>
<!-- Generator: Adobe Illustrator 17.0.0, SVG Export Plug-In . SVG Version: 6.00 Build 0)  -->
<!DOCTYPE svg PUBLIC "-//W3C//DTD SVG 1.1//EN" "http://www.w3.org/Graphics/SVG/1.1/DTD/svg11.dtd">
<svg version="1.1" id="图层_1" xmlns="http://www.w3.org/2000/svg" xmlns:xlink="http://www.w3.org/1999/xlink" x="0px" y="0px"
	 width="74px" height="74px" viewBox="0 0 74 74" enable-background="new 0 0 74 74" xml:space="preserve">
<path fill="none" stroke="#F39800" stroke-linecap="round" stroke-linejoin="round" stroke-miterlimit="10" d="M33.743,51.847v6.037
	c0,1.802,1.458,3.262,3.257,3.262c1.799,0,3.257-1.461,3.257-3.262v-6.037c2.982-1.27,5.074-4.231,5.074-7.682
	c0-4.609-3.73-8.344-8.331-8.344s-8.331,3.736-8.331,8.344C28.669,47.616,30.761,50.577,33.743,51.847z"/>
<path fill="none" stroke="#898989" stroke-width="2" stroke-linecap="round" stroke-linejoin="round" stroke-miterlimit="10" d="
	M23.345,26.311V14.68C23.345,7.125,29.459,1,37,1c7.541,0,13.655,6.125,13.655,13.68v5.386"/>
<path fill="none" stroke="#898989" stroke-width="2" stroke-linecap="round" stroke-linejoin="round" stroke-miterlimit="10" d="
	M58.129,73c4.601,0,8.331-3.736,8.331-8.344v-30c0-4.609-3.73-8.344-8.331-8.344H15.871c-4.601,0-8.331,3.736-8.331,8.344v30
	c0,4.609,3.73,8.344,8.331,8.344H58.129z"/>
<path fill="none" stroke="#898989" stroke-linecap="round" stroke-linejoin="round" stroke-miterlimit="10" d="M15.871,68.886
	c-2.329,0-4.223-1.897-4.223-4.231V34.656c0-2.332,1.894-4.23,4.223-4.23h42.258c2.329,0,4.223,1.897,4.223,4.23v29.999
	c0,2.333-1.894,4.231-4.223,4.231H15.871z"/>
</svg>
