<?xml version="1.0" encoding="utf-8"?>
<!-- Generator: Adobe Illustrator 17.0.0, SVG Export Plug-In . SVG Version: 6.00 Build 0)  -->
<!DOCTYPE svg PUBLIC "-//W3C//DTD SVG 1.1//EN" "http://www.w3.org/Graphics/SVG/1.1/DTD/svg11.dtd">
<svg version="1.1" id="图层_1" xmlns="http://www.w3.org/2000/svg" xmlns:xlink="http://www.w3.org/1999/xlink" x="0px" y="0px"
	 width="74px" height="74px" viewBox="0 0 74 74" enable-background="new 0 0 74 74" xml:space="preserve">
<polygon fill="none" stroke="#898989" stroke-linecap="round" stroke-linejoin="round" stroke-miterlimit="10" points="
	33.534,68.717 29.274,64.448 33.534,47.772 37.795,64.448 "/>
<path fill="none" stroke="#898989" stroke-width="2" stroke-linecap="round" stroke-linejoin="round" stroke-miterlimit="10" d="
	M47.702,29.365c0,7.833-6.343,14.182-14.167,14.182s-14.167-6.35-14.167-14.182V15.182C19.367,7.35,25.71,1,33.534,1
	s14.167,6.35,14.167,14.182V29.365z"/>
<path fill="none" stroke="#898989" stroke-width="2" stroke-linecap="round" stroke-linejoin="round" stroke-miterlimit="10" d="
	M1.585,73V53.964c0-8.832,9.952-17.393,18.775-17.393"/>
<path fill="none" stroke="#898989" stroke-width="2" stroke-linecap="round" stroke-linejoin="round" stroke-miterlimit="10" d="
	M56.757,39.897c-3.096-2.06-6.656-3.326-10.048-3.326"/>
<path fill="none" stroke="#898989" stroke-width="2" stroke-linecap="round" stroke-linejoin="round" stroke-miterlimit="10" d="
	M65.484,73V53.964"/>
<line fill="none" stroke="#898989" stroke-linecap="round" stroke-linejoin="round" stroke-miterlimit="10" x1="23.779" y1="17.312" x2="43.29" y2="17.312"/>
<g>
	
		<rect x="62.245" y="17.403" fill="none" stroke="#F39800" stroke-linecap="round" stroke-linejoin="round" stroke-miterlimit="10" width="6.665" height="6.663"/>
	
		<rect x="62.245" y="25.847" fill="none" stroke="#F39800" stroke-linecap="round" stroke-linejoin="round" stroke-miterlimit="10" width="6.665" height="23.104"/>
	
		<rect x="70.692" y="17.403" fill="none" stroke="#F39800" stroke-linecap="round" stroke-linejoin="round" stroke-miterlimit="10" width="2.357" height="6.663"/>
	<path fill="none" stroke="#F39800" stroke-linecap="round" stroke-linejoin="round" stroke-miterlimit="10" d="M53.798,24.066
		h6.665c0,0,0-6.663,0-6.663C56.782,17.403,53.798,20.386,53.798,24.066z"/>
</g>
</svg>
