<?xml version="1.0" encoding="utf-8"?>
<!-- Generator: Adobe Illustrator 17.0.0, SVG Export Plug-In . SVG Version: 6.00 Build 0)  -->
<!DOCTYPE svg PUBLIC "-//W3C//DTD SVG 1.1//EN" "http://www.w3.org/Graphics/SVG/1.1/DTD/svg11.dtd">
<svg version="1.1" id="图层_1" xmlns="http://www.w3.org/2000/svg" xmlns:xlink="http://www.w3.org/1999/xlink" x="0px" y="0px"
	 width="74px" height="74px" viewBox="0 0 74 74" enable-background="new 0 0 74 74" xml:space="preserve">
<g>
	<g>
		
			<circle fill="none" stroke="#22AC38" stroke-linecap="round" stroke-linejoin="round" stroke-miterlimit="10" cx="13.119" cy="22.516" r="2.223"/>
		
			<circle fill="none" stroke="#22AC38" stroke-linecap="round" stroke-linejoin="round" stroke-miterlimit="10" cx="20.765" cy="22.516" r="2.223"/>
		
			<circle fill="none" stroke="#22AC38" stroke-linecap="round" stroke-linejoin="round" stroke-miterlimit="10" cx="28.411" cy="22.516" r="2.223"/>
	</g>
	<path fill="none" stroke="#898989" stroke-width="2" stroke-linecap="round" stroke-linejoin="round" stroke-miterlimit="10" d="
		M40.53,28.901V11.73c0-1.842-1.496-3.335-3.341-3.335H4.341C2.496,8.395,1,9.888,1,11.73v21.863
		c0,6.355,5.161,11.507,11.526,11.507v-8.172H33.47"/>
	<path fill="none" stroke="#898989" stroke-width="2" stroke-linecap="round" stroke-linejoin="round" stroke-miterlimit="10" d="
		M36.81,28.901h32.849c1.845,0,3.341,1.493,3.341,3.335v21.863c0,6.355-5.161,11.507-11.526,11.507v-8.172H36.81
		c-1.845,0-3.341-1.493-3.341-3.335V32.236C33.47,30.394,34.966,28.901,36.81,28.901z"/>
	<g>
		
			<circle fill="none" stroke="#22AC38" stroke-linecap="round" stroke-linejoin="round" stroke-miterlimit="10" cx="45.589" cy="42.426" r="2.223"/>
		
			<circle fill="none" stroke="#22AC38" stroke-linecap="round" stroke-linejoin="round" stroke-miterlimit="10" cx="53.235" cy="42.426" r="2.223"/>
		
			<circle fill="none" stroke="#22AC38" stroke-linecap="round" stroke-linejoin="round" stroke-miterlimit="10" cx="60.881" cy="42.426" r="2.223"/>
	</g>
</g>
</svg>
