<?xml version="1.0" encoding="utf-8"?>
<!-- Generator: Adobe Illustrator 17.0.0, SVG Export Plug-In . SVG Version: 6.00 Build 0)  -->
<!DOCTYPE svg PUBLIC "-//W3C//DTD SVG 1.1//EN" "http://www.w3.org/Graphics/SVG/1.1/DTD/svg11.dtd">
<svg version="1.1" id="图层_1" xmlns="http://www.w3.org/2000/svg" xmlns:xlink="http://www.w3.org/1999/xlink" x="0px" y="0px"
	 width="74px" height="74px" viewBox="0 0 74 74" enable-background="new 0 0 74 74" xml:space="preserve">
<g>
	<path fill="none" stroke="#898989" stroke-width="2" stroke-linecap="round" stroke-linejoin="round" stroke-miterlimit="10" d="
		M47.707,29.365c0,7.833-6.344,14.182-14.169,14.182S19.37,37.197,19.37,29.365V15.182C19.37,7.35,25.713,1,33.539,1
		s14.169,6.35,14.169,14.182V29.365z"/>
	<path fill="none" stroke="#898989" stroke-width="2" stroke-linecap="round" stroke-linejoin="round" stroke-miterlimit="10" d="
		M1.586,73V53.964c0-8.832,9.953-17.393,18.777-17.393"/>
	<path fill="none" stroke="#898989" stroke-width="2" stroke-linecap="round" stroke-linejoin="round" stroke-miterlimit="10" d="
		M56.764,39.897c-3.097-2.06-6.656-3.326-10.049-3.326"/>
	<path fill="none" stroke="#898989" stroke-width="2" stroke-linecap="round" stroke-linejoin="round" stroke-miterlimit="10" d="
		M65.491,73V53.964c0-1.408-0.253-2.81-0.714-4.171"/>
	
		<line fill="none" stroke="#898989" stroke-linecap="round" stroke-linejoin="round" stroke-miterlimit="10" x1="23.782" y1="17.312" x2="43.295" y2="17.312"/>
	
		<polyline fill="none" stroke="#EA5514" stroke-width="2" stroke-linecap="round" stroke-linejoin="round" stroke-miterlimit="10" points="
		72.414,32.001 38.938,65.502 23.405,49.957 	"/>
</g>
</svg>
