<?xml version="1.0" encoding="utf-8"?>
<!-- Generator: Adobe Illustrator 17.0.0, SVG Export Plug-In . SVG Version: 6.00 Build 0)  -->
<!DOCTYPE svg PUBLIC "-//W3C//DTD SVG 1.1//EN" "http://www.w3.org/Graphics/SVG/1.1/DTD/svg11.dtd">
<svg version="1.1" id="图层_1" xmlns="http://www.w3.org/2000/svg" xmlns:xlink="http://www.w3.org/1999/xlink" x="0px" y="0px"
	 width="74px" height="74px" viewBox="0 0 74 74" enable-background="new 0 0 74 74" xml:space="preserve">
<g>
	<g>
		<path fill="none" stroke="#898989" stroke-linejoin="round" stroke-miterlimit="10" d="M63.592,17.148
			c-6.115,2.81-15.716,4.62-26.511,4.62c-10.891,0-20.566-1.843-26.673-4.695"/>
		<path fill="none" stroke="#898989" stroke-linejoin="round" stroke-miterlimit="10" d="M10.408,56.852
			c6.115-2.81,15.716-4.62,26.511-4.62c10.891,0,20.566,1.843,26.673,4.695"/>
	</g>
	<ellipse fill="none" stroke="#898989" stroke-linejoin="round" stroke-miterlimit="10" cx="37" cy="37" rx="17.467" ry="33.401"/>
	<line fill="none" stroke="#898989" stroke-linejoin="round" stroke-miterlimit="10" x1="3.554" y1="37" x2="70.446" y2="37"/>
	<line fill="none" stroke="#898989" stroke-linecap="round" stroke-miterlimit="10" x1="37" y1="70.401" x2="37" y2="3.599"/>
	
		<ellipse fill="none" stroke="#898989" stroke-width="2" stroke-linejoin="round" stroke-miterlimit="10" cx="37" cy="37" rx="33.446" ry="33.401"/>
	<path fill="none" stroke="#2EA7E0" stroke-width="2" stroke-linecap="round" stroke-miterlimit="10" d="M71.108,17.359
		c2.464-6.446,2.615-11.6-0.105-14.317c-3.628-3.623-11.593-2.147-21.18,3.105c-7.635,4.182-16.297,10.756-24.622,19.07
		c-8.325,8.314-14.908,16.965-19.095,24.59c-5.258,9.574-6.736,17.529-3.109,21.152c2.825,2.821,8.282,2.55,15.086-0.189"/>
</g>
</svg>
