<?xml version="1.0" encoding="utf-8"?>
<!-- Generator: Adobe Illustrator 17.0.0, SVG Export Plug-In . SVG Version: 6.00 Build 0)  -->
<!DOCTYPE svg PUBLIC "-//W3C//DTD SVG 1.1//EN" "http://www.w3.org/Graphics/SVG/1.1/DTD/svg11.dtd">
<svg version="1.1" id="图层_1" xmlns="http://www.w3.org/2000/svg" xmlns:xlink="http://www.w3.org/1999/xlink" x="0px" y="0px"
	 width="841.89px" height="595.28px" viewBox="0 0 841.89 595.28" enable-background="new 0 0 841.89 595.28" xml:space="preserve">
<g>
	<path fill="#FDF8F5" stroke="#040000" stroke-width="2.0398" stroke-miterlimit="10" d="M650.742,285.488
		c0,0-5.414,20.818-9.335,28.341c-4.485,8.607-13.337,16.246-13.337,16.246s1.75-13.819,0.971-22.671
		c-0.566-6.426-3.638-16.125-3.638-16.125s5.615,0.306,12.489-1.594C644.815,287.773,650.742,285.488,650.742,285.488z"/>
	<path fill="#DF921E" stroke="#040000" stroke-width="3.0597" stroke-miterlimit="10" d="M383.256,124.62
		c0,0-6.789-11.315-9.699-14.225c-2.911-2.91-7.598-4.203-7.598-4.203s-14.225-20.044-16.327-21.014
		c-2.101-0.97-14.871-3.879-14.871-3.879s-21.337-10.346-28.45-11.316c-7.114-0.97-24.248-2.101-28.612,0
		c-4.365,2.102-17.943,16.003-20.368,20.045c-2.424,4.041-7.759,13.901-7.112,15.679c0.646,1.779,1.455,7.436,3.718,7.436
		s7.597,0.97,6.789,4.042c-0.809,3.072-2.749,7.759-6.951,3.556c-4.203-4.203-3.61-6.304-3.61-6.304s-2.209-3.234-3.987-0.971
		c-1.779,2.264-8.244,12.771-8.568,14.549c-0.323,1.778-9.375,27.48-7.436,33.784c1.94,6.304,10.669,32.815,15.841,37.502
		c5.173,4.688,12.932,9.375,12.932,9.375s-3.879,4.042-3.556,8.244s2.102,11.962,7.436,14.71c5.335,2.747,15.519,6.143,18.752,7.112
		c3.233,0.97,6.95,1.131,6.95,1.131s-6.789,19.236-16.002,32.33c-9.214,13.094-24.732,29.419-24.732,29.419s13.901,0.647,21.66-2.91
		c7.759-3.556,15.195-11.962,16.65-13.416c1.454-1.455,3.394-1.779,3.394-1.779s-4.687,4.365-5.98,6.789
		c-1.293,2.425-1.616,10.831-7.112,17.781c-5.496,6.951-21.662,27.965-30.228,34.754c-8.568,6.789-27.642,20.045-32.653,21.662
		c-5.011,1.616-15.841,0.808-15.841,0.808s19.397,18.104,39.119,22.307c19.721,4.204,37.825,5.012,45.261,2.749
		s18.59-6.789,21.499-9.861c2.91-3.071,7.598-9.86,7.598-9.86s1.293,3.394,0.323,6.304s-3.718,10.831-6.628,12.933
		c-2.91,2.101-14.791,7.112-14.791,7.112s14.63-1.94,20.772-5.335c6.143-3.394,16.165-13.417,19.074-15.034s18.59-1.131,24.57,1.132
		c5.981,2.263,15.357,12.285,16.003,16.811c0.647,4.526,1.131,8.406,1.131,8.406s5.658-9.052,2.102-17.781
		c-3.556-8.729-9.538-14.548-9.538-14.548s16.489,8.567,24.409,15.195c7.921,6.628,18.267,10.184,26.995,27.156
		c8.729,16.973,5.012,17.62,8.568,24.248c3.556,6.627,24.086,19.074,35.401,26.672c11.315,7.597,31.359,22.307,32.652,24.57
		c1.293,2.263,14.872,17.297,20.692,19.236c5.819,1.94,14.709,3.233,20.528,2.747c5.819-0.484,25.218-2.586,28.774-5.496
		c3.556-2.91,6.627-9.86,6.627-14.386c0-4.527,0.486-13.903,0-17.297c-0.484-3.395-4.526-16.65-6.789-23.116
		c-2.263-6.466-3.717-22.146-2.586-33.461c1.132-11.315,5.119-30.067,9.591-39.119c4.472-9.052,9.322-21.66,10.938-27.965
		c1.617-6.304,3.556-13.255,3.556-13.255s6.951-5.01,9.699-11.638c2.749-6.628,6.305-17.458,8.729-20.367
		c2.425-2.91,7.112-8.341,7.112-8.341s4.851-2.166,12.286-3.297c7.436-1.132,21.337-3.556,25.702-5.173
		c4.364-1.616,10.506-3.072,13.901-6.467c3.394-3.394,6.304-8.729,8.243-14.871c1.94-6.143,6.789-23.277,0-29.905
		c-6.789-6.627-29.905-9.052-33.945-9.699c-4.042-0.647-41.059-5.657-47.848-7.759c-6.789-2.102-13.578-3.395-16.488-5.981
		c-2.91-2.586-10.669-15.679-14.871-19.882c-4.203-4.203-10.669-8.406-10.669-8.406s-10.831-2.102-15.842-4.527
		c-5.01-2.424-28.126-9.375-28.126-9.375s1.536-16.165-0.162-29.985c-1.697-13.821-10.83-45.666-11.8-48.252
		c-0.97-2.586-2.586-5.819-2.586-5.819s1.131-6.466,0.161-9.538c-0.97-3.071-3.717-6.143-3.717-6.143s-12.933-1.293-18.105-0.97
		c-5.173,0.323-8.567,0.323-8.567,0.323s-5.335,2.425-10.345,3.879c-5.011,1.455-16.166,2.425-23.601,6.951
		c-7.436,4.526-20.044,15.357-25.056,22.146C392.631,110.072,383.256,124.62,383.256,124.62z"/>
	<polygon fill="#320E0F" points="479.213,289.684 459.938,322.581 473.496,348.403 522.665,361.106 546.359,348.403 
		534.858,283.763 	"/>
	<path fill="#884822" d="M504.82,294.607c0,0,34.507,43.953,38.144,69.17c3.637,25.218,9.214,70.802,9.214,70.802l7.066,12.09
		l0.535-8.219c0,0-0.598-25.288,1.909-36.109c2.507-10.82,14.812-42.156,14.812-42.156l7.038-23.807c0,0,6.574-4.162,9.093-10.331
		c2.52-6.171,16.447-30.016,16.447-30.016l-3.313-10.544l-94.046-1.725l-6.58,4.607L504.82,294.607z"/>
	<path fill="#FDF8F5" stroke="#040000" stroke-width="2.0398" stroke-miterlimit="10" d="M586.932,292.895
		c0,0-2.356,18.614-4.688,23.277c-3.394,6.79-10.508,14.71-10.508,14.71s0.043-10.253-1.131-16.973
		c-1.455-8.324-6.458-22.7-6.458-22.7s9.054,1.115,11.641,1.277C578.375,292.647,586.932,292.895,586.932,292.895z"/>
	<path fill="#6D421E" d="M341.55,285.622c0,0-1.293-3.234-5.011-4.851c-3.717-1.616-11.678-1.252-15.436-0.525
		c-3.759,0.728-12.488,4.971-15.034,7.275c-2.547,2.304-6.385,8.511-6.385,8.511s3.556-2.651,6.789-3.944
		c3.233-1.293,4.688-0.809,4.688-0.809s-14.387,11.801-16.166,15.034c-1.777,3.233-1.777,6.87-1.777,6.87s4.607-5.739,9.375-7.678
		c4.769-1.94,15.275-1.94,18.59-3.233c3.313-1.293,4.607-3.507,6.143-6.239c1.536-2.732,3.637-6.126,5.819-7.743
		s5.173-2.02,5.173-2.02L341.55,285.622z"/>
	<path fill="#F3EDAD" stroke="#040000" stroke-width="2.0398" stroke-miterlimit="10" d="M437.239,217.083
		c0,0-4.52,5.496-6.137,8.082s-4.203,10.345-4.203,10.345l-3.071,4.526c0,0,1.293,0.808,4.687,0
		c3.395-0.809,8.723-3.556,8.723-3.556l2.754-3.072c0,0,2.749,1.779,6.305,1.455c3.556-0.323,11.962-2.102,11.962-2.102
		s10.506,2.102,14.709,4.688c4.204,2.586,12.933,5.01,12.933,5.01l14.063-3.879c4.042-1.454,13.579-6.304,21.985-8.809
		c8.406-2.506,24.409-3.975,24.409-3.975s-12.447,0.633-17.459,0c-5.01-0.631-16.649-8.39-26.672-10.331
		c-10.022-1.94-20.044,1.779-20.044,1.779s-6.303,3.395-11.154,4.042c-4.849,0.647-12.608,1.778-16.811,0.808
		c-4.203-0.97-8.89-3.071-8.89-3.071s0.323-3.557-2.263-4.688C440.479,213.202,437.239,217.083,437.239,217.083z"/>
	<path fill="#FDF8F5" stroke="#040000" stroke-width="2.0398" stroke-miterlimit="10" d="M567.101,466.329
		c0,0,5.121-3.057,6.738-4.512c1.616-1.454,6.628-4.364,6.628-4.364s0.808,6.143-1.455,10.183
		c-2.263,4.042-10.028,15.191-10.028,15.191l-0.554-11.494L567.101,466.329z"/>
	<path fill="#1B1909" stroke="#040000" stroke-width="1.0199" stroke-miterlimit="10" d="M435.791,219.628
		c0,0-4.728,7.275-6.183,9.699c-1.454,2.425-5.819,10.911-5.819,10.911s4.001-0.243,7.032-1.091
		c3.031-0.848,6.305-2.545,7.275-3.394c0.97-0.85,2.545-2.668,2.545-2.668s3.88,1.455,8.245,1.213
		c4.364-0.243,10.304-2.667,12.729-4.365c2.424-1.697,12.244-7.516,19.033-9.699c6.789-2.181,16.609-1.091,18.792-0.606
		c2.182,0.484,12.245,13.457,12.245,13.457s3.879-2.402,6.668-3.505c2.788-1.102,13.457-3.042,13.457-3.042
		s-16.852-7.516-22.307-8.729c-5.455-1.213-13.942-3.031-22.186-1.698c-8.245,1.334-8.245,3.031-14.671,4.365
		c-6.425,1.334-15.154,2.061-18.791,1.455c-3.638-0.607-5.699-1.698-5.699-1.698s0.364-3.151-2.424-5.212
		c-2.788-2.061-5.092-0.85-6.183,0C438.458,215.87,435.791,219.628,435.791,219.628z"/>
	<path fill="#0C0705" stroke="#040000" stroke-width="2.0398" stroke-miterlimit="10" d="M473.496,223.751
		c0,0,2.274,6.48,4.324,8.445c2.91,2.791,8.527,3.557,11.678,3.072c3.152-0.484,7.477-2.182,9.214-5.698
		c1.419-2.871,1.456-9.82,1.456-9.82s-9.336-1.616-14.671-0.486C480.164,220.396,473.496,223.751,473.496,223.751z"/>
	<path fill="#6D421E" d="M313.828,218.863c-2.182,9.054-12.367,13.01-12.367,13.01s32.491,2.425,37.342,0
		c4.849-2.424,10.426-14.305,12.365-16.488c1.94-2.182,9.215-8.486,13.335-12.366c4.122-3.879,12.15-15.367,12.15-15.367
		s-5.819-36.733-25.822-65.1c-20.003-28.368-61.978-35.919-61.978-35.919s-11.881,9.699-16.245,20.853
		c-4.365,11.154,9.213,21.337,9.213,21.337s-6.699,0.727-10.078-0.484c-3.379-1.213-5.197-8.123-5.197-8.123
		s-2.545,13.942,2.546,20.853c5.092,6.91,11.639,8.729,11.639,8.729s-11.033,5.334-19.277-0.848
		c-8.243-6.183-6.789-14.064-6.789-14.064s-7.402,11.793-4.728,22.914c3.031,12.608,13.821,16.245,19.762,17.215
		c5.941,0.97,19.761-3.152,19.761-3.152s3.273,6.587-1.738,11.922c-5.012,5.335-13.094,5.819-20.045,3.556
		c-6.95-2.263-9.536-6.305-9.536-6.305s3.625,13.018,20.367,18.752c11.801,4.041,20.853,1.778,20.853,1.778
		s1.131,8.406-6.143,10.669c-7.275,2.263-19.56,0.162-19.56,0.162s8.891,7.112,19.236,7.921
		C303.24,221.124,313.828,218.863,313.828,218.863z"/>
	<path fill="#36270F" d="M338.317,143.25c0,0,10.669,11.517,16.973,30.914c6.304,19.397,7.07,30.836,7.07,30.836l-7.814,7.094
		c0,0-3.401,3.141-4.208,4.434c-0.808,1.293-2.758,4.56-2.758,4.56s2.617-18.065-0.778-36.798
		C343.409,165.557,338.317,143.25,338.317,143.25z"/>
	<path fill="#6D421E" d="M381.598,128.176c0,0,8.979,18.557,9.093,28.288c0.085,7.285-6.789,17.62-6.789,17.62
		s13.416-21.499,24.57-32.168c4.766-4.56,14.225-8.568,14.225-8.568s-11.112-1.908-13.416-7.759
		c-2.102-5.334-0.042-13.67,3.071-20.691c3.799-8.568,24.012-28.602,24.012-28.602s-16.939,0.516-37.013,24.849
		C389.795,112.73,381.598,128.176,381.598,128.176z"/>
	<path fill="#984D23" d="M495.46,297.202c0,0-24.434,34.167-32.192,55.99c-7.759,21.823-7.638,27.978-6.957,38.071l2.824,15.24
		c0,0-4.596-7.346-7.506-15.105c-1.509-4.025-6.406-15.68-8.593-20.853c-2.186-5.174-5.166-13.034-7.174-18.081
		c-1.371-3.447-5.914-15.961-4.086-21.878c2.042-6.612,10.998-12.104,21.757-16.591C489.216,299.118,495.46,297.202,495.46,297.202z
		"/>
	<path fill="#E68361" d="M566.641,478.872c0,0-2.101,8.568-5.819,10.831c-3.717,2.263-10.128,3.503-14.387,3.072
		c-4.805-0.487-7.863-3.294-9.803-5.233c-1.94-1.94-3.613-8.184-4.583-9.639c-0.97-1.454-16.327-16.649-22.146-24.085
		c-5.819-7.436-15.518-22.146-22.63-27.804c-7.114-5.657-21.736-14.874-24.299-16.005c-2.564-1.132-7.765-9.588-9.891-14.971
		c-2.128-5.383-18.544-46.173-18.544-46.173s-4.133-12.55-3.058-16.922c1.074-4.373,4.482-7.968,6.384-9.414
		c1.902-1.447,10.726-6.446,10.726-6.446s-12.306,4.356-17.242,9.943c-4.937,5.586-8.076,12.195-7.436,18.67
		c0.641,6.475,3.471,11.446,5.651,15.527c2.18,4.081,6.985,13.51,9.315,19.031c2.328,5.519,5.75,13.745,7.149,19.179
		c1.4,5.434,4.137,11.503,6.162,14.652c2.026,3.149,12.048,7.998,15.409,9.846c3.361,1.846,7.997,6.309,10.508,8.36
		c2.51,2.052,9.4,7.327,11.655,10.532c2.255,3.206,9.723,16.408,11.738,19.995c2.013,3.587,8.983,17.168,14.23,23.255
		c5.246,6.085,9.965,10.342,17.587,12.699c7.622,2.358,16.251,3.652,19.104,3.518c5.834-0.277,11.569-4.491,12.306-7.153
		C565.462,491.475,566.641,478.872,566.641,478.872z"/>
	<path fill="#821C20" d="M472.545,333.249c0,0,5.351,1.919,8.1,4.343c2.747,2.425,1.94,3.395,1.94,3.395s2.263-3.152,6.143-3.556
		c3.879-0.404,9.376,1.859,9.376,1.859s0.243-4.284,4.365-7.678c4.122-3.395,8.567-1.455,8.567-1.455s16.489,4.203,23.762,13.498
		c7.274,9.295,9.214,16.57,11.638,29.905c2.425,13.337,1.779,19.317,3.072,28.046c1.293,8.729,7.603,35.409,9.936,43.438
		c2.332,8.027,8.672,27.4,7.858,31.074c-0.813,3.673-0.66,13.232-11.878,15.86c-10.435,2.445-18.11-0.341-21.712-9.552
		c-3.602-9.21-22.279-24.179-28.379-34.718c-6.098-10.539-18.743-22.894-26.694-27.664c-22.574-13.54-20.884-12.69-22.328-28.78
		c-1.445-16.089,3.948-29.165,3.948-29.165s3.445-10.687,5.554-15.263C467.923,342.258,472.545,333.249,472.545,333.249z"/>
	<path fill="#6B1317" d="M489.396,421.141c0,0,10.407,8.104,16.469,19.016s11.638,16.488,13.578,18.428
		c1.94,1.94,15.275,15.195,16.003,17.175c0.727,1.981,2.424,8.77,7.759,11.437c5.334,2.667,8.972,1.697,11.153,1.213
		c2.182-0.486,5.82-1.091,7.517-6.426c1.697-5.334,0.484-8.607-1.577-14.427c-2.061-5.819-6.425-16.973-6.911-24.247
		c-0.484-7.275-0.404-10.104-0.404-10.104s-1.536,5.012-1.374,10.992c0.161,5.981,1.374,11.315,3.476,16.973
		c2.101,5.658,5.253,12.447,4.93,15.761c-0.323,3.313-1.213,7.355-6.385,8.648c-5.173,1.293-9.133-0.089-11.477-2.752
		c-2.344-2.663-2.99-6.22-5.414-9.776c-2.425-3.556-13.983-15.034-17.216-18.347c-3.233-3.313-9.295-11.558-13.174-16.973
		S495.074,424.352,489.396,421.141z"/>
	<path fill="#FDF8F5" stroke="#040000" stroke-width="2.0398" stroke-miterlimit="10" d="M505.866,477.174
		c0,0,11.029-6.305,14.585-9.375c3.556-3.072,9.581-10.345,9.581-10.345s1.779,11.749-0.408,19.527
		c-2.258,8.033-9.695,17.085-9.695,17.085s-5.747-5.684-7.744-8.399C510.186,482.953,505.866,477.174,505.866,477.174z"/>
	<path fill="#6D421E" d="M410.574,168.346c0,0,12.851-8.729,21.094-10.669c8.245-1.94,12.124-4.365,13.578-6.062
		c1.456-1.697,2-2.424,1.879-3.697c-0.12-1.273-4.849-4.667-4.849-4.667s7.335,0.666,9.881,2.667c2.547,2,4.163,5.132,4.163,5.132
		s7.679-2.667,12.851-2.505c5.173,0.161,24.57,7.597,27.237,10.426c2.668,2.829,7.032,10.588,7.032,10.588s9.941,3.515,15.518,5.698
		c5.577,2.183,15.276,6.668,17.943,7.275c2.667,0.606,9.699,1.091,11.517,2.181c1.82,1.091,7.719,6.669,10.143,9.336
		c2.425,2.667,8.164,16.003,11.316,18.306c3.151,2.304,17.215,6.91,24.247,8.244c7.032,1.334,22.307,4.122,29.46,4.607
		c7.153,0.486,37.341-0.121,43.16,8.366c5.819,8.486,6.183,13.335,3.88,25.338c-2.303,12.003-4.324,19.438-18.064,23.156
		c-13.74,3.718-21.176,6.951-32.33,9.214c-11.154,2.263-24.409,6.466-37.987,5.819c-13.578-0.647-46.393-5.98-54.961-5.819
		c-8.567,0.162-24.893,3.233-34.269,6.789c-9.375,3.556-48.979,20.53-48.979,20.53s-13.417,7.275-15.842,13.578
		c-2.424,6.305-6.466,11.638,2.749,28.451c9.213,16.811,14.387,31.682,14.387,31.682s4.849,16.488,8.567,21.66
		c3.718,5.173,19.074,10.023,21.823,13.903c2.749,3.879,10.022,8.082,14.387,13.093c4.364,5.012,8.243,13.417,11.8,19.56
		s10.67,19.397,12.124,21.176c1.455,1.778,8.245,11.154,16.003,14.71c7.759,3.556,20.213,5.085,23.266,4.754
		c3.304-0.359,11.501-4.737,12.632-8.617c1.132-3.879-1.306,11.622-6.155,13.562c-4.849,1.94-22.307,5.173-28.935,4.849
		c-6.627-0.323-17.781-1.293-23.924-6.628c-6.143-5.334-11.154-12.608-15.68-16.327c-4.526-3.717-29.096-22.468-35.724-26.51
		c-6.627-4.041-24.893-16.65-26.833-18.266c-1.94-1.616-7.921-9.375-9.052-15.032c-1.132-5.658-4.042-15.842-7.598-21.985
		s-3.556-6.143-3.556-6.143s-8.244-6.466-16.165-11.638c-7.921-5.173-28.127-17.781-28.127-17.781s12.447,9.375,12.124,17.781
		c-0.323,8.406-3.879,14.064-3.879,14.064s-0.809-13.094-10.508-21.338c-9.699-8.243-23.277-6.143-29.582-3.717
		c-6.304,2.424-15.032,11.477-22.954,14.387c-7.921,2.91-19.56,4.041-19.56,4.041s17.297-6.466,20.206-12.932
		c2.91-6.466,1.293-12.771,1.293-12.771s-6.143,9.861-17.943,15.034c-11.8,5.173-21.984,5.335-27.319,5.496
		c-5.334,0.162-20.044-0.323-31.198-4.365c-11.153-4.041-32.329-18.589-32.329-18.589s18.751,11.315,30.552,11.638
		c11.801,0.323,32.006-7.598,37.341-10.184c5.335-2.586,23.6-11.638,23.6-11.638s3.395-10.508,11.963-21.66
		c8.567-11.154,16.649-17.943,20.205-20.368c3.556-2.424,11.801-6.95,11.801-6.95s-9.052,10.022-11.477,17.134
		c-2.424,7.112-2.101,16.327-2.101,16.327s9.375-17.297,26.672-30.228c17.295-12.932,34.108-17.781,37.017-18.59
		c2.91-0.808,9.052-1.131,9.052-1.131s-11.638,9.052-17.458,16.488c-5.819,7.436-11.477,18.54-11.477,18.54
		s14.871-14.66,25.863-21.935c10.992-7.273,30.875-16.165,34.108-17.295c3.233-1.132,10.508-2.749,10.508-2.749
		s-7.598,5.335-10.345,9.538c-2.749,4.203-2.263,7.597-2.263,7.597s7.759-1.649,15.357-6.239
		c7.597-4.59,16.488-11.381,20.367-15.421c3.879-4.042,14.71-15.68,20.69-19.236c5.981-3.556,29.421-11.962,29.421-11.962
		s-6.467,10.345-11.316,14.225c-4.85,3.879-16.002,9.538-16.002,9.538s8.567-0.486,14.386-2.91
		c5.819-2.425,19.883-8.406,23.762-12.124c3.879-3.717,13.417-15.807,20.53-20.593c7.112-4.786,17.134-8.989,20.691-9.959
		c3.556-0.97,8.729-1.293,8.729-1.293s-6.789-0.323-12.285-4.849c-5.496-4.526-14.548-13.578-24.086-18.266
		c-9.536-4.687-23.438-9.213-23.438-9.213s-12.124-16.65-27.158-22.469c-15.034-5.819-27.642-7.275-35.885-7.759
		c-8.244-0.486-18.429,0.161-23.925,1.454C420.434,166.486,410.574,168.346,410.574,168.346z"/>
	<path fill="#100403" d="M626.374,225.812c0,0-17.458,4.041-22.307,11.396c-2.649,4.018-9.941,18.67-2.425,26.187
		c0,0,11.801,8.164,15.196,12.69c3.394,4.526,9.213,12.447,15.195,13.74c5.98,1.293,17.62-3.556,22.793-6.305
		c5.173-2.749,10.992-13.578,11.638-16.65c0.647-3.071,5.819-7.273,7.273-10.669c1.455-3.394,0.881-13.255-1.933-18.622
		c-2.403-4.583-5.341-7.403-16.172-8.696C644.801,227.589,635.265,225.609,626.374,225.812z"/>
	<path fill="#D8D8D8" d="M631.405,233.994c-2.891,0.368-8.345,1.475-7.86,4.708c0,0-0.686,3.112,7.194,2.142
		c7.88-0.97,11.396-2.303,16.731-1.697c5.334,0.606,10.183,4.365,10.183,4.365s3.516,2.181,5.092,0
		c1.577-2.182,0.805-2.789-1.758-4.366c-2.32-1.429-9.032-3.575-14.245-4.404C640.287,233.717,634.08,233.655,631.405,233.994z"/>
	<path fill="none" stroke="#040000" stroke-width="3.0597" stroke-miterlimit="10" d="M383.256,124.62
		c0,0-6.789-11.315-9.699-14.225c-2.911-2.91-7.598-4.203-7.598-4.203s-14.225-20.044-16.327-21.014
		c-2.101-0.97-14.871-3.879-14.871-3.879s-21.337-10.346-28.45-11.316c-7.114-0.97-24.248-2.101-28.612,0
		c-4.365,2.102-17.943,16.003-20.368,20.045c-2.424,4.041-7.759,13.901-7.112,15.679c0.646,1.779,1.455,7.436,3.718,7.436
		s7.597,0.97,6.789,4.042c-0.809,3.072-2.749,7.759-6.951,3.556c-4.203-4.203-3.61-6.304-3.61-6.304s-2.209-3.234-3.987-0.971
		c-1.779,2.264-8.244,12.771-8.568,14.549c-0.323,1.778-9.375,27.48-7.436,33.784c1.94,6.304,10.669,32.815,15.841,37.502
		c5.173,4.688,12.932,9.375,12.932,9.375s-3.879,4.042-3.556,8.244s2.102,11.962,7.436,14.71c5.335,2.747,15.519,6.143,18.752,7.112
		c3.233,0.97,6.95,1.131,6.95,1.131s-6.789,19.236-16.002,32.33c-9.214,13.094-24.732,29.419-24.732,29.419s13.901,0.647,21.66-2.91
		c7.759-3.556,15.195-11.962,16.65-13.416c1.454-1.455,3.394-1.779,3.394-1.779s-4.687,4.365-5.98,6.789
		c-1.293,2.425-1.616,10.831-7.112,17.781c-5.496,6.951-21.662,27.965-30.228,34.754c-8.568,6.789-27.642,20.045-32.653,21.662
		c-5.011,1.616-15.841,0.808-15.841,0.808s19.397,18.104,39.119,22.307c19.721,4.204,37.825,5.012,45.261,2.749
		s18.59-6.789,21.499-9.861c2.91-3.071,7.598-9.86,7.598-9.86s1.293,3.394,0.323,6.304s-3.718,10.831-6.628,12.933
		c-2.91,2.101-14.791,7.112-14.791,7.112s14.63-1.94,20.772-5.335c6.143-3.394,16.165-13.417,19.074-15.034s18.59-1.131,24.57,1.132
		c5.981,2.263,15.357,12.285,16.003,16.811c0.647,4.526,1.131,8.406,1.131,8.406s5.658-9.052,2.102-17.781
		c-3.556-8.729-9.538-14.548-9.538-14.548s16.489,8.567,24.409,15.195c7.921,6.628,18.267,10.184,26.995,27.156
		c8.729,16.973,5.012,17.62,8.568,24.248c3.556,6.627,24.086,19.074,35.401,26.672c11.315,7.597,31.359,22.307,32.652,24.57
		c1.293,2.263,14.872,17.297,20.692,19.236c5.819,1.94,14.709,3.233,20.528,2.747c5.819-0.484,25.218-2.586,28.774-5.496
		c3.556-2.91,6.627-9.86,6.627-14.386c0-4.527,0.486-13.903,0-17.297c-0.484-3.395-4.526-16.65-6.789-23.116
		c-2.263-6.466-3.717-22.146-2.586-33.461c1.132-11.315,5.119-30.067,9.591-39.119c4.472-9.052,9.322-21.66,10.938-27.965
		c1.617-6.304,3.556-13.255,3.556-13.255s6.951-5.01,9.699-11.638c2.749-6.628,6.305-17.458,8.729-20.367
		c2.425-2.91,7.112-8.341,7.112-8.341s4.851-2.166,12.286-3.297c7.436-1.132,21.337-3.556,25.702-5.173
		c4.364-1.616,10.506-3.072,13.901-6.467c3.394-3.394,6.304-8.729,8.243-14.871c1.94-6.143,6.789-23.277,0-29.905
		c-6.789-6.627-29.905-9.052-33.945-9.699c-4.042-0.647-41.059-5.657-47.848-7.759c-6.789-2.102-13.578-3.395-16.488-5.981
		c-2.91-2.586-10.669-15.679-14.871-19.882c-4.203-4.203-10.669-8.406-10.669-8.406s-10.831-2.102-15.842-4.527
		c-5.01-2.424-28.126-9.375-28.126-9.375s1.536-16.165-0.162-29.985c-1.697-13.821-10.83-45.666-11.8-48.252
		c-0.97-2.586-2.586-5.819-2.586-5.819s1.131-6.466,0.161-9.538c-0.97-3.071-3.717-6.143-3.717-6.143s-12.933-1.293-18.105-0.97
		c-5.173,0.323-8.567,0.323-8.567,0.323s-5.335,2.425-10.345,3.879c-5.011,1.455-16.166,2.425-23.601,6.951
		c-7.436,4.526-20.044,15.357-25.056,22.146C392.631,110.072,383.256,124.62,383.256,124.62z"/>
	<path fill="#6B1317" d="M500.288,351.853c0,0,6.929,33.283,13.84,47.102c6.91,13.821,22.549,38.188,25.458,48.735
		c2.91,10.546,5.455,18.548,5.455,18.548s-7.25-17.999-10.16-23.495c-2.909-5.496-9.72-12.922-15.68-25.056
		C505.623,390.046,500.549,365.372,500.288,351.853z"/>
	<path fill="#6B1317" d="M487.215,348.403c0,0,4.101,20.466,9.679,30.893c5.576,10.426,6.062,12.608,12.124,25.459
		c6.061,12.851,10.669,20.125,10.669,20.125s-13.094-18.063-17.943-29.46c-4.85-11.396-10.306-21.459-11.154-25.824
		C489.741,365.233,487.215,348.403,487.215,348.403z"/>
	<path fill="#3E3A39" stroke="#040000" stroke-width="1.0199" stroke-miterlimit="10" d="M663.38,258.626
		c0,0-2.414-5.173-1.12-7.598s4.849-5.496,4.849-5.496s2.424-1.482,3.233,1.038c0.808,2.519,1.293,4.511,0,5.293
		c-1.293,0.782-4.365,1.105-5.173,2.561c-0.809,1.454,0.323,3.494,0.323,3.494s0.07,0.687-0.778,1.052
		C663.866,259.334,663.38,258.626,663.38,258.626z"/>
	<path fill="#3E3A39" stroke="#040000" stroke-width="1.0199" stroke-miterlimit="10" d="M621.416,252.752
		c0,0,4.365-6.182,8.366-6.182c4,0,14.245,4,13.668,7.638c-0.575,3.637-2.568,5.873-5.377,6.52
		c-2.808,0.647-3.455-1.454-4.263-2.101c-0.808-0.647-2.586-3.072-5.173-3.718c-2.586-0.647-2.798,1.132-5.116,0.97
		C621.201,255.717,620.803,253.555,621.416,252.752z"/>
</g>
</svg>
