<?xml version="1.0" encoding="utf-8"?>
<!-- Generator: Adobe Illustrator 17.0.0, SVG Export Plug-In . SVG Version: 6.00 Build 0)  -->
<!DOCTYPE svg PUBLIC "-//W3C//DTD SVG 1.1//EN" "http://www.w3.org/Graphics/SVG/1.1/DTD/svg11.dtd">
<svg version="1.1" id="图层_1" xmlns="http://www.w3.org/2000/svg" xmlns:xlink="http://www.w3.org/1999/xlink" x="0px" y="0px"
	 width="841.89px" height="595.28px" viewBox="0 0 841.89 595.28" enable-background="new 0 0 841.89 595.28" xml:space="preserve">
<path fill="#DC4C21" d="M685.805,386.839c1.333-2.428,3.713-4.904,3.809-11.854c0.095-6.951-5.237-11.711-5.618-11.902
	s-4.332-3.19-11.569-2.952s-11.188,0.905-13.473,1.19s-7.046,0.905-9.617,0.905s-6.237-0.809-7.855-1.619
	c-1.619-0.809-5.475-3.607-7.094-6.707c-1.619-3.1-2.333-6.576-2.333-6.576l20.471-9.188c0,0,2.428-1.238,3.428-2.476
	c1-1.238,1.523-2.428,1.523-2.428s0.095-3.713,1.047-6.141c0.952-2.428,2.571-3.523,2.571-3.523l9.95-8.665
	c0,0-4.743-5.118-5.618-9.426c-1.946-9.585-1.058-18.218-1.058-18.218s4.169,9.228,5.142,10.91c1.5,2.595,3.819,5.07,3.819,5.07
	s0.053-2.396,1.664-6.333c0.61-1.491,4.165-7.299,4.165-7.299s1.396,4.681,3.396,7.109c1.465,1.779,2.444,2.215,5.005,3.387
	c3,1.374,4.564,3.897,6.183,6.69c0.311,0.537,0.905,1.666,0.905,1.666s8.056,1.016,16.673,4.443
	c8.617,3.428,16.948,9.617,16.948,9.617l-9.246,1.809c0,0,8.76,2,15.245,7.379c5.43,4.505,7.511,6.938,7.559,6.993
	c0.004-0.289,0.011-0.577,0.011-0.867c0-32.113-26.032-58.145-58.145-58.145c-32.112,0-58.145,26.032-58.145,58.145
	c0,29.983,22.695,54.662,51.843,57.804C677.459,395.58,684.478,389.256,685.805,386.839z"/>
</svg>
